<svg width="20" height="20" fill="none" viewBox="0 0 20 20" xmlns="http://www.w3.org/2000/svg"><path d="M6.833 4.583a.833.833 0 1 0 0 1.667h.834a.833.833 0 1 0 0-1.667h-.834zM6 8.75c0-.46.373-.834.833-.834h.834a.833.833 0 0 1 0 1.667h-.834A.833.833 0 0 1 6 8.75zM6.833 11.25a.833.833 0 1 0 0 1.666h.834a.833.833 0 1 0 0-1.666h-.834zM11.5 5.416c0-.46.373-.833.833-.833h.834a.833.833 0 1 1 0 1.667h-.834a.833.833 0 0 1-.833-.834zM12.333 7.916a.833.833 0 0 0 0 1.667h.834a.833.833 0 1 0 0-1.667h-.834zM11.5 12.083c0-.46.373-.833.833-.833h.834a.833.833 0 1 1 0 1.666h-.834a.833.833 0 0 1-.833-.833z" fill="#21252a"></path><path fill-rule="evenodd" clip-rule="evenodd" d="M1.667 2.833a2 2 0 0 1 2-2h12.666a2 2 0 0 1 2 2v14.333a2 2 0 0 1-2 2H3.667a2 2 0 0 1-2-2V2.833zm1.666-.083a.25.25 0 0 1 .25-.25h12.834a.25.25 0 0 1 .25.25v14.5a.25.25 0 0 1-.25.25h-5.25V15a.833.833 0 0 0-.834-.834h-.666a.833.833 0 0 0-.834.834v2.5h-5.25a.25.25 0 0 1-.25-.25V2.75z" fill="#21252a"></path></svg>