<svg width="16" height="16" fill="none" viewBox="0 0 16 16" xmlns="http://www.w3.org/2000/svg"><path fill-rule="evenodd" clip-rule="evenodd" d="M6.5 2.25A.25.25 0 0 1 6.75 2h2.5a.25.25 0 0 1 .25.25V3.5h-3V2.25zm4.5 0V3.5h2.25a.75.75 0 0 1 0 1.5H2.75a.75.75 0 0 1 0-1.5H5V2.25C5 1.284 5.784.5 6.75.5h2.5c.966 0 1.75.784 1.75 1.75zM4.496 7.175a.75.75 0 1 0-1.492.15l.66 6.6A1.75 1.75 0 0 0 5.405 15.5h5.19c.9 0 1.652-.681 1.741-1.576l.66-6.6a.75.75 0 0 0-1.492-.149l-.66 6.6a.25.25 0 0 1-.249.225h-5.19a.25.25 0 0 1-.249-.225l-.66-6.6z" fill="#535961"></path></svg>